<svg width="1024" height="1024" viewBox="0 0 1024 1024" fill="none" xmlns="http://www.w3.org/2000/svg">
<g clip-path="url(#clip0_610_1418)">
<path fill-rule="evenodd" clip-rule="evenodd" d="M317.269 0H706.816C817.152 0 857.088 11.521 897.451 33.0267C937.813 54.6179 969.387 86.2792 990.976 126.56C1012.57 166.926 1024 206.865 1024 317.21V706.79C1024 817.135 1012.48 857.074 990.976 897.44C969.387 937.806 937.728 969.382 897.451 990.973C857.088 1012.56 817.152 1024 706.816 1024H317.269C206.933 1024 166.997 1012.48 126.635 990.973C86.272 969.382 54.6987 937.721 33.1093 897.44C11.52 857.159 0 817.135 0 706.79V317.296C0 206.951 11.52 167.011 33.024 126.645C54.6133 86.2792 86.272 54.6179 126.635 33.0267C166.912 11.521 206.933 0 317.269 0Z" fill="#062032"/>
<path d="M275.095 418.57L661.499 176.134C734.635 130.253 829.52 183.005 829.52 269.564V754.435C829.52 840.986 734.635 893.747 661.499 847.866L275.095 605.43C206.308 562.265 206.308 461.735 275.095 418.57Z" fill="#1EA5FC"/>
<path d="M748.905 418.57L362.501 176.134C289.366 130.253 194.48 183.005 194.48 269.564V754.435C194.48 840.986 289.366 893.747 362.501 847.866L748.905 605.43C817.692 562.265 817.692 461.735 748.905 418.57Z" fill="#7B6EF6"/>
</g>
<defs>
<clipPath id="clip0_610_1418">
<rect width="1024" height="1024" fill="white"/>
</clipPath>
</defs>
</svg>
